<svg width="600" height="120" viewBox="0 0 600 120" xmlns="http://www.w3.org/2000/svg">
  <rect width="600" height="120" rx="12" fill="#1a4a1a"/>
  <g transform="translate(20, 22)">
    <polygon points="40,0 64,14 64,42 40,56 16,42 16,14" fill="white" stroke="#f5c518" stroke-width="2"/>
    <polygon points="40,8 58,19 58,43 40,54 22,43 22,19" fill="#2a6b2a"/>
    <circle cx="30" cy="25" r="5" fill="white"/>
    <circle cx="40" cy="38" r="5" fill="white"/>
    <circle cx="52" cy="27" r="5" fill="white"/>
    <line x1="30" y1="25" x2="40" y2="38" stroke="#f5c518" stroke-width="2" stroke-dasharray="3,3"/>
    <line x1="40" y1="38" x2="52" y2="27" stroke="#f5c518" stroke-width="2" stroke-dasharray="3,3"/>
    <circle cx="30" cy="23" r="2" fill="#1a4a1a"/>
    <circle cx="40" cy="36" r="2" fill="#1a4a1a"/>
    <circle cx="52" cy="25" r="2" fill="#1a4a1a"/>
    <polygon points="52,19 59,27 45,27" fill="#f5c518"/>
  </g>
  <text x="100" y="58" font-family="'Segoe UI',Arial,sans-serif" font-size="52" font-weight="700" fill="white" letter-spacing="-1">Turf<tspan fill="#f5c518">Wize</tspan></text>
  <text x="102" y="78" font-family="'Segoe UI',Arial,sans-serif" font-size="13" fill="rgba(255,255,255,0.6)" letter-spacing="3">SMARTER LAWN CARE</text>
  <line x1="102" y1="88" x2="560" y2="88" stroke="#f5c518" stroke-width="2"/>
</svg>
